Coordinates
version=1
nRows=8
nColumns=36
inDegrees=yes

Units are S.I. units (second, meters, Newtons, ...)
If the header above contains a line with 'inDegrees', this indicates whether rotational values are in degrees (yes) or radians (no).

endheader
time	pelvis_tilt	pelvis_list	pelvis_rotation	pelvis_tx	pelvis_ty	pelvis_tz	hip_flexion_r	hip_adduction_r	hip_rotation_r	knee_angle_r	knee_angle_r_beta	ankle_angle_r	subtalar_angle_r	mtp_angle_r	hip_flexion_l	hip_adduction_l	hip_rotation_l	knee_angle_l	knee_angle_l_beta	ankle_angle_l	subtalar_angle_l	mtp_angle_l	lumbar_extension	lumbar_bending	lumbar_rotation	arm_flex_r	arm_add_r	arm_rot_r	elbow_flex_r	pro_sup_r	arm_flex_l	arm_add_l	arm_rot_l	elbow_flex_l	pro_sup_l
      1.03000000	     -1.18666880	      2.59424264	      1.40990471	      1.15212169	      1.02888070	     -0.27628259	     25.33504706	     -3.09611228	     -8.69978516	      8.41693647	      0.14690325	     -6.73615636	    -14.33674214	     -7.09181613	    -11.82490328	      5.67395995	     -0.41689064	      2.70222766	      0.04716277	     10.85374053	      8.91657053	     -7.09181613	    -12.70135134	     -0.97373598	     -6.75428988	     -5.79958218	     -6.07145702	    -17.38047316	     34.94920624	    108.67798124	     13.11008870	    -11.72361083	      6.52909308	     59.45976831	    109.38201056
      1.04000000	     -1.40500969	      2.99085996	      1.42932254	      1.16528124	      1.02566240	     -0.27550251	     24.71434875	     -3.23381506	     -8.32417854	      3.97978783	      0.06946040	     -5.51410192	    -10.94713294	     -7.10670176	    -12.60272858	      5.99110288	     -1.02323585	      2.38149365	      0.04156491	     11.30653217	     10.26086568	     -7.10670176	    -12.46759564	     -1.30193707	     -6.96196734	     -6.00732813	     -6.01811598	    -17.68310198	     34.79936574	    108.62048994	     13.11710876	    -11.89345833	      6.41525851	     60.44662548	    109.41669506
      1.05000000	     -1.73486705	      3.50825531	      1.29165065	      1.17834529	      1.02202508	     -0.27455499	     24.72457975	     -3.55527993	     -8.12974025	      0.98914438	      0.01726383	     -3.54018553	     -6.63284152	     -7.11965254	    -13.16441134	      6.48482681	     -1.45469557	      2.27740103	      0.03974815	     11.66118132	     10.98113144	     -7.11965254	    -12.09403365	     -1.79740625	     -6.98137033	     -6.15826109	     -5.95436297	    -18.01611980	     34.52676074	    108.59638718	     13.06819442	    -12.09425366	      6.45516288	     61.34832387	    109.54182430
      1.06000000	     -2.32312516	      4.21500119	      1.17985847	      1.19097498	      1.01784968	     -0.27399150	     25.91508207	     -4.26475797	     -8.77723292	      0.36032147	      0.00628880	     -0.21806282	     -1.17678779	     -7.13166840	    -13.32047765	      7.21702611	     -1.58674400	      2.37366493	      0.04142827	     11.92605688	     11.26809061	     -7.13166840	    -11.46938515	     -2.45707805	     -6.98060122	     -6.35610111	     -5.92088926	    -18.34038704	     34.31658182	    108.58938711	     13.08117626	    -12.20763478	      6.44678591	     62.08165848	    109.67216850
      1.07000000	     -2.64652526	      4.70675597	      1.09701354	      1.20384218	      1.01419196	     -0.27330639	     26.75625636	     -4.75445349	     -8.99514411	      0.24971265	      0.00435831	      2.35955804	      3.29947120	     -7.14407050	    -13.74391964	      7.67402927	     -1.57566441	      2.51097352	      0.04382476	     12.18423287	     11.49822107	     -7.14407050	    -11.16726390	     -2.85544721	     -6.96913720	     -6.47884779	     -5.92518517	    -18.62137808	     34.12103276	    108.57960505	     13.10344148	    -12.27982966	      6.40490002	     62.77742440	    109.78968081
      1.08000000	     -2.82501235	      4.96293597	      0.99495189	      1.21697568	      1.01090867	     -0.27222154	     27.15829725	     -4.90996265	     -7.73928504	      0.22885951	      0.00399435	      3.45366766	      4.71885780	     -7.14829948	    -14.27037782	      7.83942725	     -1.52291025	      2.76211134	      0.04820794	     12.49200192	     11.55354468	     -7.14829948	    -11.00976190	     -3.01432015	     -6.85119730	     -6.58703874	     -5.95152432	    -18.79692577	     33.87636896	    108.53776509	     13.12055204	    -12.33141240	      6.45104309	     63.36476027	    109.84878201
      1.09000000	     -2.80837736	      4.81488276	      1.12800541	      1.23050546	      1.00831237	     -0.27127221	     27.03227110	     -4.73181631	     -6.51343535	      0.26571140	      0.00463754	      3.60114997	      5.23849404	     -7.14995351	    -14.88751630	      7.47139258	     -1.22133259	      3.26686313	      0.05701752	     12.55477410	     11.64399248	     -7.14995351	    -11.06676810	     -2.63629020	     -6.90804099	     -6.69344668	     -6.07447173	    -18.91667016	     33.66758122	    108.48998114	     13.16500739	    -12.29410403	      6.46359622	     63.65498918	    109.85616470
      1.10000000	     -2.37284293	      4.46485210	      1.10151697	      1.24451356	      1.00642014	     -0.26978758	     26.25524636	     -4.22785491	     -4.61141513	      0.40492246	      0.00706723	      3.35423186	      4.49373352	     -7.15446725	    -15.93276740	      6.88002541	     -1.33225698	      3.83155884	      0.06687332	     13.05247476	     11.73515297	     -7.15446725	    -11.58020220	     -2.09748885	     -6.83275603	     -6.58789809	     -6.13965289	    -19.14006283	     33.29061797	    108.42107515	     13.02266546	    -12.23968179	      6.35245790	     64.21164605	    109.89127178
